<?xml version="1.0" encoding="UTF-8"?>
<svg id="body" xmlns="http://www.w3.org/2000/svg" viewBox="0 0 1024 1024">
  <defs>
    <style>
      .cls-body-1 {
        stroke: currentColor;
        stroke-miterlimit: 10;
        stroke-width: .85px;
      } 

      .cls-body-1, .cls-body-2 {
        fill: currentColor;
      }
    </style>
  </defs>
  <path class="cls-body-2" d="M113.11,626.98c.04-.33.02-.18,0,0h0Z"/>
  <path class="cls-body-2" d="M355.84,304.91l-.26.11c-.78.33.16-.06.26-.11Z"/>
  <path class="cls-body-1" d="M917.56,823.96c-.01-.09-.05-.33-.08-.51-.07-.43-.04-.26,0,0,.02.1.04.22.06.39-.04-.25-.07-.5-.1-.75-.09-.62-.17-1.24-.26-1.86-.16-1.12-.33-2.23-.5-3.35-.36-2.3-.75-4.59-1.16-6.89-1.61-8.95-3.47-17.85-5.68-26.66-3.82-15.22-8.8-30.1-13.57-45.04-2.82-8.84-5.35-17.79-8.33-26.58-3.06-9-6.53-17.85-9.87-26.75-3.32-8.84-6.36-17.76-9.18-26.76-2.95-9.44-5.6-18.98-7.49-28.69-1.99-10.24-2.92-20.6-3.55-31.01-.6-9.84-.69-19.7-1.13-29.55-.16-3.64-.5-7.27-.9-10.89-.12-1.06-.24-2.11-.37-3.17-.11-.9-.07-2.06-.37-2.91.03.21.06.42.09.64-.03-.22-.06-.44-.09-.65-.03-.22-.06-.44-.09-.66-.07-.49-.14-.99-.21-1.48-.14-.99-.29-1.99-.44-2.98-1.19-7.89-2.58-15.74-4.09-23.57-2.84-14.68-6.39-29.2-10.95-43.45-2.29-7.17-4.81-14.26-7.56-21.26-.68-1.72-1.37-3.44-2.07-5.15-.21-.51-.42-1.02-.63-1.52-.04-.09-.08-.19-.12-.28-.44-.75-.71-1.67-1.05-2.46-.22-.5-.44-1.01-.66-1.51-.18-.41-.36-.83-.53-1.25.08.19.16.37.23.56-.02,0-.26-.58-.24-.55-.36-.82-.73-1.64-1.1-2.46-.78-1.73-1.57-3.45-2.38-5.16-6.33-13.45-13.56-26.47-21.7-38.91-4.04-6.17-8.3-12.2-12.78-18.05-.2-.26-1.16-1.47-.4-.52-.28-.34-.54-.7-.81-1.05-.54-.7-1.09-1.39-1.64-2.08-1.13-1.42-2.27-2.83-3.43-4.23-2.37-2.87-4.8-5.69-7.29-8.46-9.79-10.93-20.43-21.1-31.87-30.29-.73-.58-1.45-1.16-2.18-1.74-.35-.27-.69-.54-1.04-.82-.14-.11-.27-.21-.41-.32-.01-.01-.03-.02-.04-.03-1.44-1.11-2.89-2.2-4.35-3.27-3.01-2.21-6.06-4.36-9.17-6.44-6.16-4.13-12.49-8-18.98-11.57-6.56-3.62-13.29-6.94-20.15-9.96-.88-.39-1.75-.77-2.63-1.14-.17-.07-.35-.15-.52-.22-.03-.01-.04-.02-.07-.03-.42-.18-.84-.35-1.26-.52-1.73-.72-3.47-1.41-5.22-2.09-3.62-1.4-7.27-2.72-10.95-3.95-17.63-5.91-35.94-9.97-54.23-13.25-10.07-1.81-19.68-3.22-29.47-4.35-10.06-1.17-20.15-2.03-30.25-2.61-20.23-1.15-40.53-1.13-60.77-.03-9.8.53-19.6,1.31-29.38,2.25-1.37.27-2.73.53-4.1.81-.91.19-1.82.42-2.73.57.52-.27.48-.26-.11,0-.16.07-.32.13-.48.2-.37.12-.95.14-1.41.19-.04,0-.08.01-.14.02-.2.03-.41.06-.62.1-3.64.56-7.26,1.18-10.88,1.86-14.91,2.77-29.68,6.15-44.25,10.36-7.23,2.09-14.4,4.39-21.5,6.91-3.53,1.25-7.05,2.56-10.54,3.91-1.79.7-3.58,1.4-5.36,2.13-.84.34-1.68.69-2.53,1.03-.48.2-.96.4-1.45.6l-.37.19c-.79.41-4.75,2.02-5.14,2.19-1.66.73-3.32,1.48-4.97,2.23-3.39,1.55-6.75,3.15-10.1,4.8-6.67,3.29-13.25,6.77-19.72,10.44-12.91,7.31-25.4,15.35-37.41,24.05-3,2.17-5.97,4.39-8.9,6.64-.27.21-1.56,1.22-.49.37-.35.28-.71.55-1.07.83-.71.55-1.42,1.11-2.12,1.67-1.45,1.15-2.9,2.3-4.33,3.47-5.74,4.67-11.36,9.49-16.84,14.46-10.96,9.94-21.41,20.44-31.27,31.47-4.9,5.48-9.65,11.08-14.25,16.81-1.16,1.44-2.31,2.89-3.44,4.35-.31.39-.61.79-.92,1.18-.03.04-.23.3-.32.42-.04.05-.07.09-.08.1-.52.67-1.03,1.35-1.55,2.03-2.24,2.95-4.44,5.92-6.6,8.93-8.64,12.02-16.64,24.5-23.96,37.37-7.3,12.84-13.92,26.06-19.8,39.6-.4.92-.8,1.84-1.19,2.76-.16.37-.32.74-.47,1.11.46-1.11-.19.44-.28.66-.7,1.67-1.38,3.34-2.05,5.01-1.38,3.44-2.71,6.91-3.99,10.39-2.7,7.37-5.21,14.81-7.46,22.33-5.47,18.25-9.44,36.93-12.37,55.76-.37,2.37-.72,4.73-1.06,7.1-.17,1.2-.34,2.4-.5,3.6,0,.03,0,.06-.01.08-.04.32-.09.64-.13.96-.08.58-.15,1.16-.23,1.74-.61,4.77-1.17,9.54-1.67,14.32-1.01,9.59-1.82,19.21-2.5,28.83-1.35,19.34-2.14,38.71-2.84,58.08-.7,19.22-1.3,38.45-2.25,57.66-.84,17-2.21,33.97-2.92,50.98-.69,16.42-.96,32.87-.73,49.31.24,16.94,1.01,33.88,2.48,50.75.73,8.41,1.59,16.8,2.67,25.17.07.56.15,1.12.22,1.69.01.1.15,1.22.05.36-.11-.86.03.26.05.36.13.95.26,1.9.4,2.86.29,2.06.6,4.13.92,6.19.64,4.09,1.32,8.18,2.07,12.25,2.88,15.7,9.02,43.7,14,58.87l1.44,1.07c3.68.09,7.37.18,11.05.27,5.75.14,11.49.28,17.24.41,5.75.14,11.49.27,17.24.41,5.73.14,11.46.27,17.19.41,5.76.14,11.53.27,17.29.41,5.73.13,11.46.27,17.19.4,5.75.13,11.49.27,17.24.4,5.75.13,11.49.26,17.24.4,5.73.13,11.46.26,17.19.39,5.76.13,11.53.26,17.29.39,5.73.13,11.46.26,17.19.38,5.73.13,11.46.25,17.19.38,5.76.13,11.53.25,17.29.38,5.73.13,11.46.25,17.19.37,5.75.12,11.49.25,17.24.37,5.75.12,11.49.25,17.24.37,5.73.12,11.46.24,17.19.36,5.76.12,11.53.24,17.29.36,5.73.12,11.46.24,17.19.36,5.75.12,11.49.24,17.24.35,5.75.12,11.49.23,17.24.35,5.73.12,11.46.23,17.19.34,5.75.11,11.49.23,17.24.34,5.75.11,11.49.23,17.24.34,5.73.11,11.46.22,17.19.33,5.76.11,11.53.22,17.29.33,5.73.11,11.46.22,17.19.33,5.73.11,11.46.21,17.19.32,5.73.1,11.46.2,17.19.28,5.71.08,11.43.16,17.14.21,5.75.06,11.5.09,17.24.11,5.71.01,11.42,0,17.14-.03,5.71-.04,11.42-.1,17.13-.21,5.74-.1,11.49-.24,17.23-.42,5.71-.18,11.41-.39,17.12-.66,5.72-.26,11.44-.57,17.16-.94,5.65-.36,11.29-.77,16.93-1.24,5.61-.47,11.21-.99,16.8-1.59,5.59-.6,11.17-1.27,16.75-2.01.83-.11,1.65-.22,2.48-.34,3.75-.52,7.49-1.08,11.22-1.68,3.75-.6,7.5-1.25,11.23-1.93,3.72-.68,7.43-1.41,11.13-2.19,3.68-.77,7.35-1.59,11.02-2.41,3.68-.83,7.35-1.67,11.04-2.47,3.66-.8,7.33-1.58,11.02-2.28,3.68-.7,7.38-1.34,11.09-1.86,3.8-.54,7.61-.97,11.44-1.24,1.73-.12,3.47-.21,5.2-.26.6-.02,1.14-.38,1.37-.94.09-.23.19-.46.28-.69.48-1.18.94-2.37,1.43-3.55.15-.37.41-.82.53-1.22-.06.14-.12.29-.18.43.07-.17.14-.33.21-.5,0,.02-.02.05-.02.07.11-.25.21-.51.32-.76.23-.52.46-1.04.68-1.56.45-1.04.9-2.08,1.34-3.12.03-.07.07-.17.11-.26.06-.14.12-.29.18-.43.22-.52.44-1.04.65-1.57.34-.82.68-1.63,1.03-2.44.1-.22.19-.45.29-.67,0,0,0,0,0-.01.44-1.05.87-2.09,1.3-3.14,7.17-17.49,13.66-45.8,18.22-64.15,2.28-9.17,1.25-20.55,2.82-29.87.39-2.29.75-4.59,1.09-6.89.18-1.24.36-2.49.54-3.73.03-.21.06-.41.08-.62,0-.02,0-.04,0-.06.07-.56.15-1.12.22-1.68.59-4.67,1.09-9.36,1.5-14.05,1.61-18.73,1.69-37.6.11-56.33-.4-4.68-.9-9.35-1.51-14.01Z"/>
  <path d="M454.52,269.9c-.18-.08-.16-.03,0,0h0Z"/>
  <path d="M898.59,1036.18c-1.11-.03-1.81-1.19-1.33-2.19,38.79-81.19,44.68-189.22,15.92-274.89-12.36-44.73-32.79-86.95-42.6-132.35-5.45-42.75-3.59-86.35-16.3-128.1-.8-2.61-1.43-5.28-2.18-7.91-4.79-16.72-10.64-33.14-17.72-49.03-6.6-14.8-14.26-29.13-23.06-42.74s-17.74-25.19-28.1-36.57-21.05-21.28-32.82-30.52c-11.71-9.19-24.19-17.4-37.24-24.58-13.27-7.31-27.12-13.55-41.34-18.77-14.72-5.41-29.83-9.73-45.14-13.08-16.04-3.51-32.3-5.96-48.64-7.51-8.49-.8-17.01-1.36-25.53-1.7-25.27-1-50.97-1.65-76.21.52-14.31,1.23-28.4,4.11-42.59,5.69-5.83.65-11.53,2.44-17.24,3.79-6.61,1.56-13.2,3.19-19.72,5.04-11.23,3.19-22.2,6.25-33.11,10.46-2.91,1.12-5.8,2.28-8.68,3.47-6.4,2.65-12.73,5.47-18.99,8.45s-12.19,5.46-18.01,8.81c-2.38,1.37-4.65,2.89-7.06,4.26s-4.85,2.78-7.25,4.21c-4.8,2.86-9.54,5.82-14.21,8.87-9.34,6.11-18.42,12.61-27.22,19.48s-17.31,14.09-25.52,21.65-16.12,15.45-23.7,23.64-14.84,16.69-21.75,25.46-13.48,17.81-19.68,27.1c-6.2,9.29-12.03,18.82-17.48,28.57s-10.5,19.71-15.15,29.86c-4.63,10.11-8.75,20.41-12.64,30.83-26.75,71.54-27.39,148.96-30.4,224.33-5.14,90.97-11.32,197.14,16.16,285.54.32,1.02-.47,2.04-1.53,1.99-38.79-1.87-34.53,2.91,2.01,2.68.62,0,1.19.36,1.43.93,3.96,9.55,14.67,46.65,24.22,42.9.12-.05.25-.12.36-.19,2.05-1.43,2.67-4.15,1.3-6.3-.32-.61-.02.05.05.29-2.94-6.15-7.61-15.57-9.49-20.21-2.08-4.97-4.01-9.99-5.79-15.08-.35-1.01.42-2.07,1.49-2.04,140.46,3.57,280.93,6.71,421.41,9.53,70.47,1.2,141.14,4.03,211.47-2.05,41.75-1.82,81.7-15.64,123.05-19.51,1-.09,1.83.79,1.65,1.77-.76,4.21,5.08,7.74,7.99,3.41.08-.12.15-.27.19-.41,1.59-5.1,4.87-5.33,9.71-4.21,1.1.17,2.06-.88,1.86-1.91-.07-.36-.34-.66-.64-.87-1.13-.76-2.7-.77-4.21-.81ZM887.99,1030.72c-1.54,8.69-12.86,4.16-19.59,6.47-.07.03-.15.04-.23.06-11.12,1.58-22.08,4.13-33.03,6.6-110.97,24.32-225.59,13.61-338.24,13.06-123.99-3.22-250.11-3.86-373.07-9.01-.65-.03-1.22-.46-1.41-1.08-24.74-79.07-24.38-175.09-18.96-258.03,4.15-89,1.59-184.74,37.32-266.51,27.51-65.31,72.16-123.2,128.21-166.55,51-40.69,121.53-69.21,186.36-78.22,117.7-14.69,257.86,2.52,332.94,104.82,14.06,18.05,28.55,42.47,38.35,65.1-.01-.03.22.55.24.55-.08-.19-.16-.37-.23-.56,14.9,33.56,23.39,69.58,28.44,105.86,3.4,25.59,1.07,51.81,6.3,77.25,15.52,65.27,47.53,126.21,56.15,193.32-.03-.17-.05-.29-.06-.39,3.13,23.46,3.49,47.28,1.48,70.86-3.64,42.79-13.35,96.98-30.86,136.09-.05.1-.08.21-.1.33Z"/>
  <path d="M828.78,452.36c.04.09.07.17.11.26-.07-.15-.41-.97-.11-.26Z"/>
  <path d="M355.84,304.91c-.1.05-1.04.43-.26.11l.26-.11Z"/>
  <path d="M113.11,626.98c.02-.18.04-.33,0,0h0Z"/>
  <path d="M917.48,823.45c-.04-.26-.07-.43,0,0h0Z"/>
  <path d="M435.05,916.33s.05-.07.08-.11c-.61.69-.23.31-.08.11Z"/>
  <path d="M304.75,878.53c.35,3.47.56,6.93.74,10.41s.5,6.89.87,10.34c.76,6.99,1.46,14.01,2.5,20.96,2.03,13.49,4.93,26.95,9.61,39.79,8.22,22.55,21.86,44.34,43.98,55.36,5.66,2.82,11.64,5,17.86,6.13,6.56,1.19,13.25,1.51,19.9.98,12.73-1.02,25.31-4.53,36.56-10.61,9.34-5.05,17.67-12.03,24.22-20.39s11.63-18.16,15.21-28.38c4.15-11.84,6.32-24.31,7.99-36.71,1.81-13.5,3.02-27.41,1.85-41.01-.29-3.42-.87-6.8-1.43-10.18-.24-1.43-1.93-2.31-3.24-2.12-1.51.23-2.46,1.4-2.56,2.9-.46,6.67-.89,13.3-1.02,19.99s-.5,12.97-1.08,19.44c-.3,3.32-.66,6.63-1.09,9.94,0-.02-.2,1.49-.09.68-.06.46-.13.92-.19,1.38-.11.77-.22,1.55-.34,2.32-.28,1.88-.59,3.76-.91,5.64-1,5.84-2.14,11.66-3.69,17.37-1.34,4.94-2.97,9.8-4.95,14.52.41-.98-.04.08-.11.24-.14.31-.27.63-.41.94-.23.52-.47,1.04-.71,1.55-.55,1.18-1.13,2.34-1.73,3.5-1.16,2.24-2.42,4.43-3.77,6.56-.6.94-1.21,1.87-1.85,2.78-.38.55-.77,1.09-1.16,1.63-.13.18-.26.36-.4.54-.12.16-1.01,1.32-.34.47-1.5,1.93-3.1,3.8-4.78,5.58s-3.49,3.5-5.35,5.12c-.95.82-1.91,1.61-2.9,2.38.78-.61-.58.43-.79.58-.61.45-1.22.88-1.84,1.31-2.19,1.51-4.46,2.9-6.79,4.17-1.07.58-2.15,1.14-3.24,1.67-.67.32-1.34.64-2.01.94-.23.1-.45.2-.68.31-.13.06-1.53.66-.75.33-5.61,2.34-11.49,4.09-17.47,5.18-.84.15-1.68.29-2.52.41-.28.04-.56.08-.84.12.85-.12-.54.06-.57.07-1.62.19-3.25.34-4.87.43-3.18.19-6.37.19-9.55-.02-1.4-.09-2.8-.23-4.2-.4.93.12-.44-.07-.51-.08-.41-.06-.83-.13-1.24-.2-.82-.14-1.64-.3-2.46-.47-2.97-.63-5.88-1.49-8.72-2.57-.6-.23-1.2-.47-1.8-.72.94.39-.24-.11-.35-.16-.35-.15-.7-.31-1.04-.47-1.26-.58-2.5-1.2-3.72-1.85-2.45-1.31-4.82-2.77-7.1-4.36-.55-.38-1.1-.77-1.64-1.17-.24-.18-.49-.37-.73-.55-.59-.43.83.67-.09-.07-1.14-.91-2.26-1.83-3.34-2.8-1.99-1.77-3.88-3.65-5.67-5.62-.86-.94-1.69-1.9-2.51-2.88-.43-.51-.85-1.03-1.26-1.56,0,0-.74-.96-.32-.4.37.48-.45-.6-.53-.7-1.62-2.16-3.13-4.4-4.56-6.69-3.21-5.16-6.03-10.54-8.47-16.1-.12-.28-.25-.56-.37-.85-.6-1.38.31.77-.26-.62-.29-.71-.58-1.41-.86-2.12-.67-1.69-1.31-3.4-1.91-5.12-1.1-3.12-2.1-6.27-3-9.45-1.8-6.3-3.24-12.7-4.46-19.13s-2.33-13.2-3.38-19.82-1.88-13.08-3.29-19.53c-.71-3.26-1.42-6.51-2.07-9.77-.59-3-5.71-2.37-5.4.73h0Z"/>
</svg>