<?xml version="1.0" encoding="UTF-8"?>
<svg id="body" xmlns="http://www.w3.org/2000/svg" viewBox="0 0 750 1000">
  <defs>
    <style>
      .cls-1 {
        fill: currentColor;
      }

      .cls-2 {
        fill: #f7f5f0;
      }
    </style>
  </defs>
  <g>
    <path class="cls-1" d="M302.76,634.44s0,0-.01,0c0,0-.01,0-.02,0-.14.06-.31.14.13-.05.03-.02.04-.02.08-.04-.06.03-.12.05-.18.08Z"/>
    <path class="cls-1" d="M587.1,995.55c-.43-3-.88-6-1.47-8.98-1.28-6.4-2.55-12.79-3.8-19.2-.68-3.5-1.7-6.93-2.38-10.44-.64-3.32-.97-6.46-1.88-9.73-1.96-7.06-3.57-14.19-5.13-21.36-2.61-12.05-5.01-24.2-7.14-36.34-5.08-28.85-9.57-57.84-16.36-86.36-6.85-28.77-18.52-55.65-32.19-81.95-8.23-15.83-26.29-42.46-41.26-56.66-3.25-3.09-6.78-6.04-10.5-8.79-.72-.53-1.48-1.12-2.25-1.72-2.53-1.97-5.41-4.2-8.25-5.43-2.07-.89-4.42-1.21-6.68-1.52-1.81-.25-3.51-.48-5.03-.97-4.03-1.31-7.07-3.13-9.3-5.56-.99-1.08-1.84-2.3-2.73-3.59-.23-.5-.44-1.01-.65-1.54-.01-.06-.02-.11-.03-.17-.26-1.42-.56-2.98-1.38-4.35-.76-3.09-1.24-6.58-1.46-10.65-.2-3.66-.1-7.29.02-10.71.02-.58.03-1.17.04-1.75.02-1.02.04-2.07.12-3.07.07-.81.17-1.51.31-2.14.02-.08.04-.17.06-.27.09-.02.17-.03.25-.05.95-.22,1.88-.46,2.77-.71,1.83-.52,3.66-1.12,5.43-1.81.48-.19.95-.38,1.47-.59l.91-.39c.9-.4,1.79-.82,2.68-1.25,1.72-.84,3.47-1.77,5.35-2.83,6.96-3.92,13.57-8.04,19.63-12.25,1.57-1.09,3.19-2.25,4.8-3.46.76-.57,1.52-1.14,2.28-1.72l1.9-1.48c3.07-2.42,6.06-4.93,8.9-7.46,3.02-2.69,5.88-5.4,8.52-8.05,1.3-1.31,2.54-2.71,3.7-4.16l.48-.63c.26-.34.51-.69.76-1.04.53-.74,1.04-1.51,1.52-2.28.93-1.47,1.82-3.03,2.63-4.64.41-.8.79-1.61,1.16-2.43l.26-.59c.06-.15.13-.3.22-.51l.13-.32c.5-.17.99-.33,1.49-.5l.32-.1c4.2-1.39,8.55-2.82,12.49-5.37.75-.49,1.5-1,2.26-1.57l.53-.42c.34-.27.67-.55,1-.83,1.35-1.18,2.64-2.5,3.83-3.94l1.11-1.38.75-1-.06-.07c.34-.5.67-1.02.99-1.54.88-1.43,1.73-2.98,2.53-4.59.68-1.36,1.37-2.85,2.16-4.69.18-.42.36-.84.55-1.27l.52-1.24c.23-.55.46-1.1.69-1.65,1.46-3.54,2.68-7.3,3.61-11.16.45-1.87.84-3.8,1.16-5.73.08-.51.16-1.02.24-1.55l.1-.75c.12-.99.23-1.99.32-2.99.14-1.59.27-3.48.22-5.43-.02-.88-.08-1.75-.18-2.61l-.16-1.25c-.04-.21-.07-.43-.11-.64-.27-1.49-.72-3.01-1.41-4.82-.06-.14-.12-.28-.16-.37-.09-.2-.19-.39-.28-.58-.18-.37-.38-.73-.58-1.08-.24-.42-.49-.82-.76-1.22-.12-.18-.25-.37-.45-.65l-.54-.69c-.13-.15-.25-.3-.38-.44-.31-.35-.63-.69-.96-1.01-.34-.33-.69-.66-1.08-.98l-.5-.4c-.68-.49-1.4-.96-2.14-1.38-.41-.23-.82-.45-1.25-.66-.15-.07-.29-.14-.48-.22l-.31-.14c-.9-.34-1.66-.61-2.5-.82-1.38-.35-2.6-.37-3.68-.38-.57,0-1.1-.01-1.63-.07-.3-.03-.63-.09-1.01-.17-.17-.03-.34-.06-.52-.09.68-3.27,1.35-10.35,2.37-25.68.91-13.74,1.64-28.3,1.69-30.96.28-15.21-5.49-30.66-16.69-44.7-9.91-12.42-23.41-22.91-38.03-29.53-25.32-11.47-55.98-14.33-91.14-8.5-21.84,3.62-43.68,12.7-59.94,24.91-19.62,14.74-31.08,33.63-33.14,54.63-.64,6.54-.23,13.12.17,19.48.34,5.44.7,11.06.37,16.55l-.06.98c-.22,4.1-.64,11.72-3.42,14.5-.94.94-3.1,1.66-5.01,2.3-1.31.44-2.55.85-3.56,1.37-1.59.81-2.89,1.52-4.09,2.24-1.32.78-2.57,1.6-3.71,2.42-.31.22-.62.45-.99.73l-.36.28c-.57.46-1.13.94-1.69,1.43-1.11,1-2.16,2.06-3.12,3.16-.25.29-.5.59-.75.89-.12.15-.25.31-.43.54-.52.7-.93,1.29-1.3,1.85-.85,1.29-1.61,2.65-2.27,4.04-.16.34-.32.69-.52,1.14l-.18.46c-.27.7-.52,1.4-.74,2.09-.44,1.38-.79,2.82-1.05,4.25-.07.38-.13.75-.2,1.24l-.04.38c-.08.72-.14,1.44-.18,2.16-.07,1.41-.07,2.86.02,4.32.04.71.11,1.43.19,2.15l.07.55c.05.34.1.69.16,1.03.47,2.79,1.24,5.62,2.27,8.41.13.35.26.7.42,1.08l.63,1.47c.14.32.29.63.44.94.6,1.28,1.28,2.56,2.01,3.82.71,1.23,1.48,2.46,2.29,3.64.4.59.82,1.17,1.26,1.76l.98,1.27c1.8,2.22,3.77,4.29,5.86,6.17.59.53,1.18,1.04,1.8,1.54.31.25.62.5,1,.8l.44.33c1.24.92,2.54,1.8,3.86,2.62,1.25.77,2.57,1.51,3.93,2.2.66.34,1.33.66,2.01.97.35.16.71.32,1.08.48l.5.21c2.65,1.08,5.5,2,8.46,2.74,1.43.36,2.9.68,4.38.96.74.14,1.48.27,2.22.39.39.06.78.12,1.19.18l1.72.23c.37.05.74.09,1.1.13.68.08,1.36.14,2.04.21,1.6.15,3.05.26,4.43.34,1.79.1,3.54-.07,5.3-.24,1.76-.17,5.78-.58,7.21-.43.8.21,1.49,2.44,2.09,3.36.44.68.86,1.65,1.27,2.2,3.23,4.26,5.18,9.1,8.26,13.5,2.76,3.95,4.48,6.62,4.83,11.59.09.99.17,2.06.25,3.38.11,1.97.25,3.93.4,5.94.24,3.28.48,6.66.55,9.96.11,4.59.19,9.94-.14,15.19-.35,5.56-1.1,9.63-2.46,13.2l-.15.4c-.29.79-.57,1.53-.92,2.07-.56.87-1.05,1.51-1.55,2.02-.43.44-.86.84-1.31,1.24-1.71.73-3.4,1.51-5.05,2.29-5.62,2.62-10.37,5.62-16.39,6.09-4.19.33-8.76,2.72-12.32,5.29-.85.62-1.68,1.21-2.47,1.75-4.33,2.91-15.59,9.27-19.78,12.54-21.08,16.44-50.83,42.89-67.28,67.39-15.17,22.59-17.07,36.91-23.29,65.27-8.97,40.82-19.63,80.76-26.34,136.3l-.4-.14-.06,2.07c-.04,1.2-.11,2.49-.22,3.9-.29,2.53-.58,5.06-.85,7.55-.33,2.29-.69,4.54-1.13,7.22l-.11.67c-.49,2.92-.99,5.94-1.4,8.94,0,0-.15,1.12-.15,1.12l-.58,4.48c-.5,3.79-.97,7.58-1.44,11.37l-.45,3.58c-.67,5.33-1.35,10.84-2.17,16.3-.38,2.52-.76,5.04-1.18,7.55-.18,1.11-.37,2.25-.61,3.38-.17.76-.4,1.52-.64,2.32l-.22.74-.75,1.87,1.8.33c35.49,6.45,72.23,11.26,109.17,14.29l2.1.17-.53-2.04c-.02-.08-.04-.16-.04-.24-.03-.37-.06-.75-.08-1.14,26.37,1.64,53.37,1.92,79.5,2.19h.88c21.15.23,43.02.45,64.98.31,18.73-.12,35.34-.5,50.78-1.16,6.49-.28,13.2-.56,20.11-2.42,4.53-1.21,9.55-1.27,14.42-1.32,2.22-.03,4.52-.05,6.73-.19,5.92-.36,12.09-.9,18.36-1.59v.52s1.69-.23,1.69-.23c8.8-1.2,17.6-2.5,26.37-3.91,4.41-.71,8.81-1.44,13.21-2.19,1.61-.28,3.11-.93,4.69-1.16,5.57-.83,11.22-.56,16.82-1.01,2.85-.23,5.51-.9,8.3-1.41,2.3-.42,2.27-.91,1.93-3.22-.15-1-.29-2.01-.44-3.02Z"/>
  </g>
  <path d="M351.45,378.64s.02-.02.03-.02c0,0-.02.01-.03.02Z"/>
  <path d="M358.15,426c.16-.14.31-.27.48-.4.02-.01.04-.03.05-.04.09-.06.17-.12.26-.18.36-.25.73-.47,1.11-.68.41-.22.82-.43,1.25-.62.1-.04.2-.09.29-.13.01,0,.04-.01.06-.02-.02,0-.02,0-.04.01-.38.11.27-.11.29-.12-.11.05-.16.07-.19.08.06-.02.16-.07.22-.09.11-.04.23-.09.35-.13.91-.33,1.83-.61,2.77-.84.9-.22,1.81-.37,2.72-.55.91-.19,1.82-.33,2.74-.45,3.14-.35,6.31-.36,9.44.09-.16-.02-.33-.05-.49-.07.54.08,1.08.15,1.61.22.09.01.18.04.26.04.1,0,.38-.03.5-.04-.02,0-.03,0-.07,0-.31.04.04,0,.08,0,.1-.01.21-.02.31-.03.57-.05,1.05-.3,1.3-.85.21-.48.15-1.17-.27-1.54-.15-.14-.31-.27-.47-.4-.23-.18-.41-.32-.68-.44-.19-.08-.37-.16-.56-.23-.46-.18-.93-.31-1.41-.42-1.09-.25-2.2-.41-3.31-.47-1.98-.12-3.96-.03-5.93.18-1.72.18-3.45.41-5.11.89-1.71.5-3.4,1.13-5,1.92-1.66.82-3.27,1.9-4.52,3.27-.5.55-.61,1.46-.02,2.01.58.55,1.42.55,2.01.02Z"/>
  <path d="M467.72,430.27c.2-.04.41-.08.61-.12.01,0,.04,0,.07-.01-.03,0,.15-.02.18-.02.37-.04.75-.07,1.12-.08.78-.02,1.57-.05,2.35-.03,1.5.04,3.01.23,4.5.42,1.87.25,3.75.53,5.6.91,1.84.38,3.67.81,5.41,1.52.39.18.79.36,1.18.53.38.16.75.31,1.14.44.21.07.4.12.62.15.09.03.18.03.27.02.06,0,.1-.01.14-.02,0,0,.14-.02.19-.02,0,0,.01,0,.02,0,.06,0,.06,0,0,0,.57-.07,1.21-.49,1.14-1.16-.02-.21-.03-.44-.08-.65-.1-.39-.34-.71-.59-1.01-.32-.38-.69-.68-1.1-.98-.71-.51-1.58-.84-2.39-1.16-1.46-.59-2.98-1.02-4.52-1.31-1.65-.31-3.31-.52-4.97-.73-1.81-.23-3.61-.45-5.44-.41-1.09.02-2.26.06-3.32.33-1.06.27-2.09.65-3.07,1.14-.55.27-.73,1.01-.5,1.54.25.58.84.84,1.45.71Z"/>
  <path class="cls-2" d="M344.54,459.94c1.81-7.18,7.21-13.37,14.09-16.11,6.05-2.42,11.37-4.19,17.87-3.87,6.5.32,13.11,2.88,17.23,7.92,4.34,5.31,5.4,12.58,5.33,19.44-.06,6.02-.9,12.14-3.43,17.6s-6.92,10.24-12.56,12.35c-5.19,1.94-10.95,1.5-16.42.64-5.1-.8-10.37-2.04-14.31-5.38-4.26-3.61-6.35-9.14-7.75-14.54-1.72-6.65-1.73-11.39-.06-18.05Z"/>
  <path class="cls-2" d="M457.03,475.48c2.22-6.73,6.62-12.68,13.13-15.45,5.48-2.34,10.31-4.06,16.21-3.74s11.89,2.79,15.63,7.67c3.94,5.14,4.9,12.18,4.84,18.83-.06,5.83-.81,11.76-3.11,17.05-1.74,4.01-5.53,10.28-10.27,11.02-2.54.4-5.1,1.52-7.66,1.54s-4.91-.11-7.34-.45c-4.77-.67-9.5-2.21-13.39-5.14-5.3-4-8.6-10.35-9.46-16.93-.61-4.63-.12-9.7,1.43-14.39Z"/>
  <path d="M357.09,491.4c2.74-.55,4.9-2.68,6.03-5.11,1.13-2.43,1.38-5.14,1.46-7.79.15-4.51-.56-14.62-7.32-14.9-6.91-.28-10.07,7.39-10.73,12.6-.45,3.54-.38,7.29,1.36,10.44,1.74,3.16,5.53,5.51,9.2,4.77Z"/>
  <path d="M466.65,501.08c2.74-.55,4.9-2.68,6.03-5.11,1.13-2.43,1.38-5.14,1.46-7.79.15-4.51-.56-14.62-7.32-14.9-6.91-.28-10.07,7.39-10.73,12.6-.45,3.54-.38,7.29,1.36,10.44s5.53,5.51,9.2,4.77Z"/>
  <path d="M463.93,463.98c.43-.24.84-.49,1.3-.65.47-.17.96-.31,1.42-.53.87-.41,1.73-.84,2.61-1.24,1.75-.8,3.55-1.5,5.39-2.07,1.86-.58,3.76-.97,5.68-1.28.42-.07.6-.09,1.08-.14.51-.05,1.01-.08,1.52-.1.89-.03,1.77,0,2.65.1,0,0,.04,0,.08.01.06.01.16.03.19.03.19.03.37.06.56.1.42.08.84.18,1.25.3.36.1.71.21,1.06.33.2.07.4.14.6.22.07.03.15.06.22.09.02,0,.02.01.07.03,1.47.67,2.83,1.5,4.12,2.47.06.05.12.1.19.15.17.13.33.27.49.41.33.28.66.54.99.83.61.53,1.2,1.09,1.76,1.67.57.58,1.12,1.17,1.65,1.78.27.3.53.61.79.92.12.15.24.29.36.44.07.08.13.17.2.25.02.02.13.16.17.22.02.02.03.04.03.04.08.11.16.21.24.32.14.19.29.39.44.58.29.39.58.79.86,1.19.63.92,1.18,1.89,1.67,2.88.48.97.94,1.96,1.41,2.94.48,1.01,1.22,1.92,1.91,2.79.18.23.57.24.8.1.28-.16.35-.45.3-.75-.14-1.03-.2-2.11-.48-3.11-.27-.99-.57-1.97-.93-2.94-.7-1.88-1.57-3.67-2.67-5.35-1.98-3.03-4.37-5.91-7.28-8.1-2.73-2.05-5.97-3.6-9.37-4.11-4.04-.61-8.1.06-11.87,1.57-2.13.85-4.16,1.88-6.16,3-1.01.56-2,1.15-2.98,1.76-.46.29-.88.61-1.3.95-.48.4-.97.71-1.51,1.03-.55.33-.06,1.18.51.86Z"/>
  <path d="M494.41,508.64c-.86.13-1.73.18-2.6.26-.55.05-1.1.07-1.66.16-.02,0-.03,0-.05,0,0,0,0,0-.01,0-.12.01-.25.03-.37.04-.33.04-.76.04-1.08.15.04-.01.04-.01.06-.02-.04.01-.08.02-.11.02-.13.02-.25.03-.38.04-.21.02-.42.04-.64.06-.51.04-1.02.07-1.53.09-.98.04-1.95.07-2.93.06-.95-.01-1.9-.06-2.85-.13-.5-.04-.99-.09-1.49-.14-.28-.03-.56-.06-.84-.09-.12-.01-.23-.03-.35-.04-.05,0-.11-.01-.16-.02-.02,0-.02,0-.05,0-2.1-.3-4.22-.67-6.23-1.38-.25-.09-.5-.19-.76-.29-.03-.01-.02,0-.03,0-.02,0-.02-.01-.07-.03-.21-.09-.43-.19-.64-.27-.49-.18-.98-.36-1.48-.51-.5-.15-1-.3-1.51-.44-.53-.14-1.02-.33-1.54-.53-.45-.18-.78.59-.33.79.47.22.87.44,1.27.77.37.31.72.63,1.08.95.78.7,1.6,1.32,2.52,1.82,1.95,1.07,4.14,1.67,6.32,2.09,2.15.42,4.33.72,6.51.86,2.17.15,4.29.05,6.44-.26,1.2-.17,2.3-.46,3.4-.97,1.03-.47,1.93-1.11,2.8-1.83.25-.2.27-.63.11-.89-.18-.3-.5-.39-.83-.34Z"/>
  <path d="M432.82,524.19c.53.39,1.08.71,1.72.88.61.17,1.26.25,1.89.27.65.02,1.3-.05,1.94-.15.55-.08,1.09-.2,1.62-.37,2.21-.7,4.23-2.1,5.43-4.11.53-.89.93-1.9,1.1-2.93.1-.6.19-1.24.16-1.85-.03-.6-.15-1.23-.33-1.81-.32-1.1-.84-2.2-1.5-3.14-.33-.48-.7-.96-1.13-1.36-.44-.42-.93-.78-1.44-1.11-.56-.36-1.17-.64-1.78-.89-.5-.21-1.01-.35-1.54-.5-.55-.16-1.1-.32-1.63-.54-.03-.01-.05-.02-.06-.03-.07-.03-.15-.07-.22-.11-.12-.07-.24-.14-.35-.22-.04-.02-.07-.05-.1-.08-.01-.01-.11-.09-.12-.1-.1-.09-.19-.18-.28-.28-.47-.51-1.38.16-.98.75.32.47.72.84,1.14,1.21.46.41.96.76,1.47,1.1.46.31.93.61,1.41.88.44.24.85.51,1.25.81.5.41.95.87,1.35,1.37.3.42.56.87.78,1.34.15.41.25.85.32,1.28.08.69.07,1.4,0,2.09-.08.46-.2.91-.37,1.34-.2.43-.44.83-.71,1.21-.4.49-.83.94-1.31,1.34-.54.39-1.12.73-1.73,1.01-.67.26-1.36.46-2.06.58-.48.05-.95.05-1.43,0-.53-.09-1.05-.19-1.57-.32-.15-.04-.3-.08-.45-.13-.12-.04-.24-.1-.37-.14-.03-.01-.06-.03-.09-.04-.06-.03-.12-.06-.18-.09-.16-.08-.32-.17-.48-.26-.69-.4-1.54.41-1.11,1.11.46.75,1.04,1.43,1.73,1.97Z"/>
  <path d="M432.93,524.29s-.07-.07-.11-.11c-.05-.04-.11-.07-.16-.11.09.07.18.14.27.21Z"/>
  <path d="M450.26,543.06c-.87.15-1.72.38-2.6.54-.89.15-1.78.29-2.67.43-1.79.27-3.58.37-5.38.42-1.82.05-3.63.07-5.45-.01-1.87-.08-3.74-.03-5.61-.1-1.83-.07-3.67-.2-5.49-.4-.42-.05-.85-.09-1.27-.15-.23-.03-.46-.06-.68-.09.33.04-.35-.05-.45-.06-.91-.13-1.81-.28-2.72-.44-1.81-.32-3.62-.65-5.41-1.05-1.83-.4-3.69-.68-5.53-1.03-2.02-.38-4.01-1.02-5.96-1.64-1.98-.63-4.05-1.14-5.95-1.98-.74-.33-1.39.75-.64,1.1,1.71.81,3.31,1.81,5.03,2.59,1.77.8,3.55,1.55,5.36,2.24,1.76.67,3.47,1.43,5.26,2.03,1.79.59,3.68,1.02,5.54,1.35,3.81.68,7.68,1.13,11.55,1.29,1.89.08,3.81.14,5.7.03,1.96-.12,3.95-.51,5.88-.85,2-.35,4.02-.71,6-1.16,1.98-.45,4.15-1.09,5.8-2.32.36-.27.15-.79-.3-.72Z"/>
  <path d="M395.02,453.94c.28.6.66,1.14,1.01,1.7.67,1.1,1.33,2.21,2.29,3.08.36.33.89.09.92-.38.09-1.25-.16-2.48-.43-3.7-.12-.53-.2-1.09-.36-1.61-.22-.72-.58-1.43-.88-2.12-1.02-2.31-2.32-4.49-4.07-6.33-3.32-3.47-8.13-5.4-12.79-6.19-10.01-1.69-20.58.93-28.21,7.75-1.13,1.01-2.16,2.12-3.13,3.29-1.04,1.26-2.05,2.52-2.89,3.93-.83,1.39-1.58,2.83-2.17,4.34-.57,1.47-.68,3.07-1.27,4.54-.25.6.66.89.99.42.79-1.13,1.51-2.34,2.13-3.57.59-1.18,1.32-2.3,1.99-3.43.65-1.1,1.35-2.18,2.18-3.16.85-1.01,1.86-1.87,2.88-2.7,1.84-1.49,3.96-2.96,6.16-4.19.53-.29,1.07-.57,1.61-.84.3-.15.6-.29.91-.43.14-.06.28-.12.42-.19.06-.03.13-.06.19-.08-.01,0,0,0,.07-.03.99-.4,1.98-.76,3-1.06,1.03-.3,2.08-.55,3.14-.75.47-.09.94-.16,1.42-.23.07,0,.47-.06.57-.07.31-.04.63-.07.95-.09,2.28-.19,4.57-.17,6.84.1,0,0,.11.01.2.03.09.01.23.03.23.03.26.04.52.08.78.13.57.1,1.13.22,1.7.35,1.08.26,2.15.58,3.19.98.12.05.24.09.36.14.04.01.16.07.24.1.19.08.38.16.56.25.5.24,1,.49,1.48.76.44.25.86.51,1.28.78.21.14.42.28.62.42.12.09.24.18.36.26.03.02.03.02.04.03.02.01,0,0,.04.03.5.42.99.85,1.44,1.32.22.24.44.48.65.73.09.1.17.21.26.31.05.07.1.13.15.2.78,1.06,1.46,2.21,2.08,3.36.31.59.61,1.18.9,1.78Z"/>
  <path d="M386.65,495.73c-.48.12-.93.31-1.4.43-.54.14-1.09.23-1.65.32-.97.15-1.97.19-2.95.24-1.14.05-2.28-.01-3.41.09-1.21.11-2.42.26-3.63.36-2.45.19-4.92.18-7.37,0-.53-.04-1.01-.09-1.37-.15-.25-.04-.49-.08-.74-.12-.36-.06-.8-.11-1.04-.14-1.08-.16-2.11-.4-3.15-.73-1.17-.37-2.32-.8-3.49-1.17-1.21-.38-2.41-.75-3.6-1.18-.44-.16-.76.57-.32.77,1.07.48,2.08,1.04,3.11,1.6.99.54,2.01,1.02,3.04,1.48,1.02.45,2.05.87,3.07,1.3,1.12.48,2.23.83,3.43,1.07,2.57.51,5.16.53,7.77.36,1.22-.08,2.43-.19,3.64-.35.67-.09,1.37-.17,2.02-.37.61-.19,1.21-.37,1.82-.53,1.16-.3,2.32-.59,3.44-1.01,1.05-.39,2.32-.91,3.06-1.78.18-.21.01-.55-.28-.47Z"/>
</svg>
