<?xml version="1.0" encoding="UTF-8"?>
<svg id="Layer_22" data-name="Layer 22" xmlns="http://www.w3.org/2000/svg" viewBox="0 0 500 500">
  <defs>
    <style>
      .cls-1 {
        fill: none;
      }

      .cls-2 {
        fill: #f4f2ea;
      }
    </style>
  </defs>
  <path class="cls-1" d="M124.7,357.46c-2.58-2.32-5.22-4.59-7.9-6.8-1.17-.96-2.35-1.91-3.54-2.85-.36-.28-.71-.56-1.07-.84-.05-.04-.25-.2-.32-.25-.58-.45-1.17-.89-1.75-1.33-2.5-1.88-5.04-3.71-7.62-5.49-5.06-3.5-10.26-6.79-15.59-9.87-5.36-3.1-10.78-6.06-16.35-8.76-2.75-1.34-5.57-2.55-8.32-3.88-2.78-1.35-5.59-2.65-8.42-3.88-1.27-.55-1.62-2.32-1.14-3.47.52-1.23,1.95-2.02,3.28-1.61,3.32,1.02,6.68,2.05,9.92,3.3,3.45,1.33,6.85,2.86,10.21,4.41,11.36,5.22,22.22,11.43,32.52,18.51,5.36,3.68,10.56,7.6,15.62,11.69,1.96,1.58,3.87,3.22,5.77,4.87-1.4-3.72-2.74-7.46-4.19-11.17-.41-1.03-.82-2.06-1.24-3.09-.18-.45-.37-.89-.55-1.34-.02-.05-.06-.13-.09-.22-.27-.63-.13-.3,0,0,.03.07.06.14.1.24-.08-.18-.15-.35-.23-.53-.83-1.94-1.68-3.86-2.58-5.77-1.78-3.79-3.72-7.5-5.79-11.14-2.06-3.61-4.3-7.13-6.76-10.49-.33-.46-.67-.91-1.02-1.36,0,0,0,0,0-.01-.77-.92-.19-.24,0,0,.03.03.04.05.07.08-.12-.14-.23-.3-.35-.45-.64-.82-1.3-1.63-1.97-2.42-1.36-1.61-2.77-3.18-4.24-4.69-1.45-1.49-2.95-2.92-4.5-4.3-.83-.74-1.67-1.46-2.53-2.16-.37-.31-.75-.61-1.12-.91-.11-.09-.22-.18-.34-.27.22.19.39.41-.25-.18-3.32-2.5-6.78-4.79-10.41-6.8-1.85-1.02-3.73-1.98-5.65-2.86-.52-.24-1.05-.48-1.57-.7-.03-.01-.07-.03-.1-.04-.89-.35-.32-.13,0,0,.06.02.09.04.16.06-.19-.07-.38-.16-.58-.24-1.06-.43-2.13-.84-3.21-1.23-4.09-1.46-8.3-2.54-12.6-3.17-4-.48-8.03-.52-12.03-.05-1.65.25-3.29.58-4.9,1.03-.86.24-1.71.5-2.55.79-.42.15-.84.3-1.26.46-.25.1-.5.19-.75.29,0,0-.03.01-.04.02-.11.05-.21.09-.26.11-.16.07-.33.15-.49.22-.36.17-.73.34-1.09.52-.68.34-1.35.69-2.01,1.07-1.4.79-2.75,1.66-4.05,2.61-.03.03-.07.05-.1.08.26-.18.47-.27-.33.26-.26.21-.52.42-.77.63-.55.46-1.08.94-1.6,1.43-1.17,1.1-2.26,2.28-3.28,3.52,0,.02-.12.16-.33.42-.21.28-.42.57-.62.86-.45.64-.87,1.29-1.28,1.96-.75,1.25-1.38,2.55-2.01,3.86-.09.2-.31.69-.39.9-.13.34-.26.69-.38,1.04-.27.78-.52,1.58-.74,2.38-.38,1.39-.67,2.8-.89,4.23-.3,2.64-.31,5.3-.02,7.95.4,2.43,1.07,4.79,1.98,7.08,1.09,2.46,2.4,4.82,3.9,7.06.71,1.07,1.48,2.09,2.24,3.12.09.11.17.22.22.28.17.21.34.43.52.64.43.53.87,1.05,1.32,1.57,3.29,3.8,6.98,7.23,10.92,10.34,6.09,4.62,12.76,8.4,19.77,11.44,9.62,3.98,19.74,6.51,30.04,7.95,3.34.43,6.69.78,10.04,1.04,11.19.84,22.43.64,33.64.04-.8-.69-1.56-1.41-2.32-2.14-1.28-1.21-2.58-2.4-3.89-3.58Z"/>
  <path class="cls-2" d="M22.47,289.67c.09-.11.12-.15.19-.23.01-.01.02-.03.03-.04-.07.09-.14.18-.22.27Z"/>
  <path class="cls-2" d="M22.99,289.03s-.13.14-.23.28c-.02.03-.05.06-.07.09.1-.12.19-.24.29-.36,0,0,0,0,.01-.02Z"/>
  <path class="cls-1" d="M233.23,137.6c2.26,5.17,5.07,10.09,8.47,14.6,1.17,1.47,2.41,2.89,3.7,4.25,2.53-1.84,5.13-3.54,7.93-4.97,13.17-6.75,28.33-9.92,43.1-8.49,3.93.38,7.86.99,11.7,1.96,3.84.97,7.53,2.32,11.17,3.87,2.68,1.15,5.24,2.52,7.73,4.02,3.51-5.2,6.44-10.81,8.93-16.56,3.66-8.88,6.02-18.25,7.37-27.75,1.2-9.48,1.48-19.15.3-28.65-.77-5.11-2.04-10.13-3.97-14.93-1.75-3.95-3.95-7.66-6.54-11.11-3.05-3.82-6.54-7.25-10.37-10.29-4.32-3.25-9-5.98-13.95-8.15-4.87-1.98-9.95-3.43-15.15-4.2-4.96-.59-9.97-.61-14.93-.02-5.04.75-9.97,2.1-14.7,4.01-4.68,2.04-9.1,4.62-13.18,7.69-3.68,2.94-7.02,6.27-9.96,9.95-3.21,4.27-5.86,8.92-8.01,13.82-2.78,6.79-4.61,13.92-5.66,21.17-1.15,9.1-1.16,18.35-.01,27.45,1.11,7.65,3.06,15.18,6.01,22.33Z"/>
  <path class="cls-2" d="M92.63,291.17s-.04-.02-.05-.04c.04.03.07.06.11.08-.02-.02-.03-.03-.05-.04Z"/>
  <path class="cls-2" d="M28.54,283.52s.06-.04.1-.07c.04-.03.07-.06.11-.09-.07.05-.14.11-.21.16Z"/>
  <path class="cls-2" d="M28.8,283.32s-.03.03-.05.04c.07-.06.15-.11.22-.16-.06.04-.12.08-.17.12Z"/>
  <path class="cls-2" d="M248.32,169.14c-.12.09-.23.17-.35.25,0,.01-.02.02-.03.04.13-.1.25-.19.38-.29Z"/>
  <path class="cls-2" d="M92.34,290.94s.06.05.1.09c.05.03.1.07.14.1-.08-.06-.17-.12-.24-.19Z"/>
  <path class="cls-1" d="M221.04,196.2c2.3-7.27,5.56-14.4,9.99-20.62.53-.75,1.07-1.48,1.63-2.21.38-.5.77-1,1.15-1.49.04-.06.15-.19.41-.53.25-.32.49-.6.76-.9,1.21-1.35,2.42-2.7,3.7-3.98.05-.05.1-.09.15-.14,0-.02-.02-.05-.02-.07-.35-.22-.68-.47-.97-.76-1-1-1.96-2.03-2.88-3.09-.03-.01-.05-.01-.08-.03-.63-.32-1.28-.61-1.9-.95-.38-.18-.36-.18.05,0,.72.29.43.17-.88-.37-.27-.14-.53-.3-.8-.44-1.17-.61-2.34-1.2-3.53-1.78-2.37-1.16-4.72-2.34-7.11-3.45.46.19.92.39,1.37.58-2.91-1.22-5.74-2.64-8.64-3.91-9.09-3.78-18.58-6.56-28.34-7.97-8-1-16.14-1.1-24.15-.12-6.51.95-12.89,2.64-18.98,5.12-4.75,2.09-9.3,4.65-13.46,7.76-2.72,2.19-5.23,4.63-7.43,7.34-2.09,2.84-3.82,5.92-5.25,9.15-1.93,4.78-3.23,9.78-4,14.87-.6,4.98-.71,10.04-.13,15.03.66,4.22,1.85,8.32,3.45,12.28,2.06,4.74,4.57,9.4,7.66,13.55,2.24,2.77,4.78,5.27,7.55,7.51,3.47,2.59,7.23,4.75,11.19,6.5,5.18,2.1,10.61,3.48,16.14,4.29,9.25,1.12,18.61.73,27.84-.44,11.87-1.65,23.55-4.68,34.74-8.97-3.81-13.62-3.5-28.3.76-41.78Z"/>
  <path class="cls-1" d="M478.4,167.08c-1.6-3.61-3.59-7.01-5.95-10.18-2.74-3.43-5.88-6.51-9.31-9.25-4.29-3.23-8.94-5.94-13.86-8.09-5.24-2.12-10.71-3.57-16.29-4.39-7.31-.9-14.69-.75-21.99.17-9.84,1.44-19.33,4.5-28.49,8.31-3.48,1.49-6.92,3.07-10.31,4.75-10.12,5.02-19.95,10.74-29.17,17.29,8,8.47,14.08,18.81,17.67,29.86,4.24,13.05,4.64,27.22,1.15,40.49,4.72,1.88,9.51,3.44,14.41,4.8,4.88,1.36,9.8,2.45,14.81,3.18,5.36.68,10.76,1.05,16.16,1.23,5.65.18,11.3.22,16.92-.44,6.19-.93,12.24-2.68,18.02-5.06,6.2-2.69,12.27-5.87,17.67-9.94,3.81-3.05,7.3-6.51,10.35-10.32,3.08-4.09,5.68-8.5,7.74-13.19,1.83-4.52,3.14-9.23,3.86-14.05.48-4.19.51-8.39.02-12.57-.65-4.32-1.77-8.55-3.4-12.6Z"/>
  <path class="cls-1" d="M315.64,273.99c4.25-1.88,8.26-4.25,11.98-7.04,4.13-3.28,7.85-7.05,11.13-11.19,3.35-4.44,6.16-9.25,8.39-14.35,2.06-5.07,3.53-10.36,4.33-15.78.61-5.15.59-10.34-.03-15.48-.82-5.51-2.32-10.89-4.41-16.06-2.31-5.31-5.25-10.34-8.73-14.97-3.42-4.32-7.31-8.24-11.63-11.66-4.01-3.01-8.33-5.56-12.92-7.58-4.91-1.99-10.04-3.37-15.29-4.16-5.77-.7-11.61-.69-17.38,0-5.86.86-11.59,2.42-17.07,4.66-2.77,1.21-5.47,2.57-8.06,4.12-1.43.86-2.86,1.72-4.25,2.64-1.24.82-2.53,1.68-3.85,2.39-.27.36-.55.72-.87.96.11-.15.23-.31.34-.46-.23.3-.46.59-.69.89-.09.11-.18.21-.27.31-.16.19-.31.4-.47.59,0,0,0,0,0,0-.16.22-.33.43-.49.65-.67.91-1.33,1.83-1.96,2.76-1.3,1.91-2.59,3.85-3.78,5.83-2.28,3.78-4.37,7.69-6.13,11.74-2.27,5.54-3.89,11.32-4.76,17.24-.67,5.49-.66,11.03.01,16.51.8,5.38,2.22,10.64,4.28,15.67,1.94,4.43,4.36,8.63,7.27,12.5,2.66,3.34,5.68,6.38,9.03,9.04,4.68,3.51,9.81,6.37,15.17,8.71,6.15,2.53,12.58,4.33,19.16,5.3,5.82.72,11.69.77,17.51.07,4.95-.74,9.8-2.02,14.44-3.9ZM302.69,202.5c0-.08.01-.16.02-.23,0-.02,0-.05,0-.07.06-.49.13-.99.2-1.49,0-.04.01-.07.02-.11.03-.15.06-.3.12-.44.09-.25.21-.52.31-.75.1-.23.2-.5.31-.74.03-.07.07-.13.11-.19.02-.03.05-.07.07-.1.26-.34.58-.76.85-1.1,0,0,.01-.01.02-.02.01-.01.02-.03.03-.04.04-.05.09-.1.14-.14.37-.31.76-.61,1.16-.89.03-.02.05-.03.08-.05.03-.02.06-.03.09-.05.17-.09.39-.18.6-.27,0,0,0,0,.01,0,.42-.24,1.37-.59,1.42-.61.04-.02.08-.03.12-.04.02,0,.05-.01.07-.02.48-.09,1.6-.21,1.5-.2.04,0,.08,0,.13,0,.53.02,1.05.11,1.57.21.04,0,.08.02.12.03.48.17.96.36,1.41.6.04.02.07.04.1.06.41.29.83.58,1.19.93.03.03.06.05.08.08.01.01.02.02.03.04.14.18.29.37.43.56.14.18.28.36.42.55.01.02.03.04.04.06.02.03.04.07.06.1.01.02.03.05.04.08.2.44.38.88.56,1.33.02.04.03.08.04.12.01.04.02.09.03.14.09.51.15,1.03.21,1.54-.06-.47-.13-.95-.19-1.42.09.51.15,1.02.21,1.53,0,.04,0,.08,0,.13,0,.08,0,.16-.01.24-.06.47-.13.97-.19,1.45,0,0,0,.02,0,.03,0,.02,0,.04,0,.06,0,.04-.02.08-.03.12-.02.08-.04.16-.07.24-.18.51-.41,1.01-.63,1.51-.07.15-.14.29-.23.42-.04.06-.08.12-.12.18-.31.43-.63.86-.98,1.26-.05.06-.1.11-.15.16-.03.03-.05.05-.08.07-.37.32-.78.61-1.16.9-.06.04-.12.09-.18.12-.03.02-.07.04-.1.05-.45.21-.91.4-1.38.58-.06.02-.12.04-.19.06-.53.12-1.08.18-1.62.22-.06,0-.13,0-.19,0-.02,0-.03,0-.05,0-.42-.05-1.04-.14-1.46-.2,0,0-.02,0-.02,0-.03,0-.06-.01-.1-.02-.06-.01-.12-.03-.18-.06-.11-.04-.96-.36-1.38-.59-.03-.01-.05-.03-.08-.05-.02-.01-.03-.02-.05-.03,0,0-.01,0-.02-.01-.37-.28-.74-.57-1.1-.85,0,0,0,0,0,0-.02-.02-.05-.04-.07-.06-.02-.02-.04-.05-.06-.07,0,0-.01-.01-.02-.02-.28-.37-.57-.74-.85-1.1,0,0,0,0,0,0,0-.01-.02-.03-.03-.04-.02-.03-.04-.07-.06-.1-.22-.45-.41-.92-.59-1.39-.03-.07-.05-.15-.07-.23,0-.04-.01-.08-.02-.12-.02-.13-.17-1.05-.21-1.55,0-.08,0-.16,0-.24ZM278.63,207.88s-.03,0-.04,0c-.03,0-.06-.01-.1-.02-.03,0-.06-.02-.09-.03-.02,0-.03-.01-.05-.02-.22-.09-.48-.2-.65-.28-.17-.07-.43-.18-.65-.27-.06-.03-.12-.06-.18-.09-.03-.02-.06-.04-.1-.07-.38-.29-.77-.57-1.14-.88-.06-.05-.11-.1-.16-.16-.17-.19-.34-.43-.48-.61-.14-.19-.33-.41-.47-.62-.04-.06-.08-.12-.11-.19-.02-.03-.04-.07-.05-.11,0-.02-.02-.03-.02-.05-.18-.43-.37-.87-.55-1.3-.06-.14-.1-.28-.13-.43-.02-.07-.03-.15-.04-.22-.07-.48-.13-.97-.2-1.46,0-.02,0-.04,0-.06,0-.03,0-.07-.01-.1-.01-.15-.02-.3-.01-.45,0-.07,0-.15.01-.22,0-.04,0-.08.01-.12.06-.5.12-1,.2-1.5.08-.53.3-.95.57-1.48.03-.06.06-.13.1-.19.03-.06.07-.12.11-.18.02-.03.04-.06.07-.09.01-.01.02-.03.03-.04.27-.36.55-.72.83-1.07.09-.11.19-.21.29-.3.18-.15.38-.29.55-.43.02-.01.04-.03.06-.04.02-.03.04-.06.07-.08,0,0,.02-.02.02-.03.02-.02.04-.04.06-.06.18-.17.48-.38.6-.47.12-.1.4-.34.61-.47.02-.02.05-.03.08-.04,0,0,.02,0,.02-.01.18-.08,1.11-.47,1.29-.54.01,0,.03-.01.04-.02.03-.01.06-.02.09-.03.02,0,.04,0,.05-.01.24-.04.67-.09.73-.1.18-.02.49-.07.74-.1.03,0,.07,0,.1,0,.02,0,.03,0,.05,0,.24.02.67.09.73.1.07.01.5.06.73.1.03,0,.07.01.1.02.02,0,.03.01.05.02,0,0,.01,0,.02,0,.27.1,1.02.43,1.28.54.06.03.13.06.18.1.02.01.03.02.05.04.33.25.77.59,1.09.84,0,0,.01,0,.02.01.03.02.05.04.08.07.05.05.11.11.15.17.27.34.58.74.84,1.09,0,0,0,.01.01.02.01.02.02.03.03.05.02.03.04.06.06.09.04.07.08.14.11.21.12.24.22.5.31.74.1.23.21.48.3.72.03.08.05.15.07.23.05.16.08.32.11.49,0,.02,0,.05.01.07.07.48.13.96.19,1.43,0,.04,0,.08.01.11,0,.08.01.17.01.25,0,.08,0,.17,0,.25-.03.53-.14,1.1-.21,1.6.06-.46.12-.92.18-1.38,0,.08-.01.16-.02.24-.06.48-.12.96-.19,1.43,0,.02,0,.04-.01.06,0,.04-.01.07-.02.11-.02.08-.04.16-.07.24-.01.04-.03.08-.04.11-.17.43-.36.86-.54,1.28,0,.02-.02.04-.02.06-.03.07-.07.14-.11.2-.15.24-.36.48-.52.69-.16.21-.34.48-.54.69-.05.05-.1.1-.15.14-.02.01-.03.02-.05.04-.35.28-.73.57-1.09.84-.03.02-.06.04-.08.06-.06.04-.12.07-.18.11-.03.02-.06.03-.1.05-.02,0-.03.01-.05.02-.41.18-.87.37-1.29.54-.13.05-.26.09-.39.11-.25.04-.52.07-.75.1-.22.03-.5.07-.75.1-.03,0-.06,0-.09,0-.07,0-.14,0-.2,0-.43-.05-.99-.13-1.42-.19,0,0-.02,0-.03,0ZM293.8,225.93c-1.38-.1-2.75-.31-4.08-.68-.7-.19-1.39-.43-2.07-.69-.09.21-.17.42-.27.63-.45.92-1.05,1.7-1.67,2.5-.46.45-.99.77-1.61.94-.32.04-.65.09-.97.13-.66,0-1.27-.17-1.85-.5-.25-.19-.49-.38-.74-.57-.36-.33-.61-.72-.76-1.18-.23-.44-.33-.91-.31-1.41-.02-.5.09-.97.31-1.41.15-.45.4-.85.76-1.18.04-.05.08-.1.13-.15.39-.54.72-1.12,1-1.72.24-.64.42-1.3.54-1.98.06-.65.06-1.3,0-1.95-.06-.33-.11-.65-.2-.97-.15-.56-.15-1.11,0-1.67.11-.25.21-.5.32-.75.28-.47.66-.85,1.13-1.13.25-.11.5-.21.75-.32.42-.13.84-.15,1.25-.06.42.02.81.14,1.17.37.37.2.66.47.88.81.28.3.47.66.56,1.07.3.75.5,1.53.61,2.32.08.54.14,1.07.18,1.61.59.14,1.18.26,1.77.35.42.05.84.09,1.26.12.6.03,1.19.07,1.79.09,1.08.03,2.15-.05,3.22-.17.88-.14,1.77-.29,2.63-.5.54-.13,1.07-.29,1.6-.46.25-.08.49-.17.73-.26.13-.05.26-.1.4-.15.07-.03.13-.05.2-.07l1-.13s.09,0,.13,0c.51-.02.98.09,1.42.32.31.09.58.25.81.47.28.16.5.38.66.66.23.23.39.5.47.81.23.44.34.91.32,1.42-.04.33-.09.65-.13.98-.12.29-.25.59-.37.88-.19.25-.38.5-.58.75-.64.66-1.12.81-1.94,1.15-.14.06-.28.12-.43.18-.27.11-.55.21-.83.31-.58.2-1.16.38-1.76.54-1.37.36-2.79.55-4.21.65-1.08.08-2.16.08-3.24,0Z"/>
  <path class="cls-1" d="M239.03,269.27c-2.91-2.63-5.44-5.58-7.81-8.7-1.8-2.37-3.37-4.91-4.8-7.52-.19.08-.38.15-.57.23-6.6,2.82-12.95,6.2-18.97,10.08-.15.39-.38.75-.71,1.03-.65.55-1.3,1.11-1.92,1.7-.17.16-.32.34-.48.52-.24.32-.49.64-.72.96-.35.5-.72.98-1.11,1.45-.14.16-.27.33-.4.5-.46.61-.92,1.22-1.36,1.85-1.92,2.72-3.62,5.58-5.17,8.52.18-.43.36-.86.55-1.29-.74,1.77-1.75,3.38-2.67,5.07-.74,1.36-1.44,2.73-2.12,4.12-1.34,2.72-2.64,5.44-3.84,8.22-3.37,8.14-6.07,16.55-7.37,25.27-.71,5.79-.79,11.64-.1,17.44.75,4.92,2.03,9.77,3.89,14.39,1.55,3.48,3.45,6.79,5.71,9.86,2.15,2.68,4.58,5.11,7.26,7.26,2.78,2.03,5.76,3.75,8.9,5.15,3.82,1.53,7.8,2.61,11.87,3.23,4.34.51,8.72.51,13.06,0,4.28-.66,8.45-1.82,12.46-3.43,4.58-2.02,8.89-4.58,12.89-7.58,4.59-3.65,8.72-7.84,12.36-12.43,4.09-5.43,7.48-11.33,10.2-17.57,3.4-8.32,5.63-17.07,6.9-25.97.52-4.09.87-8.21,1.13-12.32.21-3.25.27-6.51.38-9.76-13.09-1.2-26.02-5.61-37.08-12.51-3.66-2.28-7.16-4.9-10.37-7.8Z"/>
  <path class="cls-1" d="M362.27,261.69c-1.52-1.15-3.07-2.27-4.68-3.28-1.36-.86-2.77-1.67-4.11-2.59-3.95,6.57-8.85,12.56-14.62,17.51-5.67,4.87-11.88,8.71-18.78,11.59-6.64,2.78-13.79,4.24-20.97,4.77.11,1.3.21,2.61.25,3.93.23,7.47-.28,14.96-1.4,22.35,1.13,4.34,2.31,8.67,3.58,12.98,1.73,5.9,3.47,11.77,5.73,17.51-.22-.52-.44-1.05-.66-1.57.85,2.01,1.61,4.05,2.43,6.06,2.67,6.19,5.92,12.1,9.97,17.49,3.13,3.94,6.66,7.57,10.6,10.7,3.02,2.24,6.25,4.18,9.69,5.72,2.98,1.18,6.06,2.04,9.22,2.55,3.51.39,7.04.36,10.55-.03,4.69-.72,9.25-2.04,13.65-3.82,5.12-2.24,10.01-5.05,14.48-8.4,3.03-2.42,5.81-5.13,8.24-8.14,2.25-3.03,4.13-6.31,5.67-9.75,1.78-4.42,3-9.05,3.72-13.76.67-5.61.64-11.27-.02-16.88-.92-6.21-2.64-12.23-5.01-18.04-3.44-7.92-7.99-15.32-13.21-22.19-3.55-4.52-7.35-8.82-11.38-12.91-4.09-4.15-8.36-8.18-12.93-11.81Z"/>
  <path d="M476.99,144.12c-8.98-9.15-20.8-15.72-33.18-18.94-13.21-3.44-27.16-3.23-40.49-.66-11.9,2.29-23.36,6.88-34.27,12.06-8.42,4-16.58,8.61-24.4,13.73.15-.26.32-.51.47-.76,1.72-3.03,3.07-6.31,4.4-9.52,1.15-2.77,2.17-5.6,3.07-8.47,1.8-5.72,3.12-11.58,4.04-17.5,1.02-6.6,1.72-13.26,1.8-19.95.17-13.3-2.34-26.93-8.84-38.65-6.24-11.25-16.24-20.67-27.41-26.95-10.93-6.14-23.49-9.58-36.04-9.61-12.15-.03-24.28,3.32-34.79,9.39-10.64,6.15-19.52,15.14-25.56,25.84-6.35,11.25-9.62,23.86-10.91,36.65-1.2,11.99-.46,24.27,2.26,36.02,1.33,5.77,3.24,11.38,5.71,16.73-4.16-2.12-8.49-3.97-12.82-5.67-10.62-4.16-21.83-6.82-33.22-7.6-5.34-.37-10.76-.16-16.06.48-5.82.7-11.55,1.78-17.14,3.57-10.8,3.47-21.34,9.07-29.36,17.21-7.86,7.98-12.63,18.55-14.79,29.45-2.23,11.21-2.28,23.07,1.33,34,1.83,5.55,4.39,10.88,7.37,15.89,2.75,4.63,6.07,8.95,10.05,12.61,8.03,7.38,18.05,12.46,28.63,15.04,11.81,2.88,24.13,2.97,36.16,1.58,2.68-.31,5.35-.7,8.01-1.13-3.45,2.71-6.78,5.58-9.92,8.62-10.72,10.38-19.59,22.73-26.36,36.01-6.31,12.38-11.03,25.57-14.3,39.07-.61,2.5-1.17,5.01-1.71,7.53-.21-.72-.39-1.44-.6-2.16-1.65-5.57-3.77-11.06-5.94-16.45-4.42-10.97-9.7-21.56-16.93-30.97-7.46-9.7-16.57-17.98-27.2-24.12-11.09-6.41-23.91-10.87-36.84-10.66-12.12.19-24.07,4.82-32.73,13.4-8.56,8.48-13.46,20.95-12.26,33.03.65,6.56,2.82,12.7,6.24,18.33,3.1,5.11,6.98,9.84,11.21,14.06,8.01,7.99,17.66,14.36,27.97,18.98,11.11,4.98,22.8,8.17,34.86,9.83,13.53,1.86,27.19,1.97,40.81,1.34,2.47-.11,4.95-.27,7.42-.42-1.21,9.91-1.94,19.88-2.21,29.83-.58,21.7,1.15,43.37,4.36,64.82.38,2.56.79,5.11,1.22,7.66.23,1.4,1.59,2.91,2.77,3.6,1.29.76,3.2,1.08,4.65.61,1.46-.47,2.87-1.38,3.6-2.77.8-1.52.88-2.96.61-4.65-.65-3.98-1.24-7.98-1.79-11.97-1.49-11.3-2.52-22.65-2.99-34.04-.47-11.65-.35-23.32.44-34.95.43-6.35,1.07-12.68,1.91-18.99,2.08-15.01,5.15-29.97,10.13-44.3,1.09-3.12,2.27-6.21,3.54-9.27,3.3-7.72,7.23-15.17,11.79-22.22-2.06,5.12-3.72,10.39-4.89,15.77-2.42,11.15-2.77,22.58-.36,33.76,2.24,10.4,7.23,20.36,14.52,28.14,6.76,7.21,15.74,12.3,25.22,14.94,9.64,2.68,19.87,2.87,29.65.83,4.92-1.03,9.64-2.8,14.18-4.93,4.08-1.92,7.95-4.3,11.54-7.02,4.07-3.09,7.9-6.42,11.34-10.2,3.45-3.79,6.59-7.9,9.36-12.21,3.39-5.29,6.19-10.99,8.46-16.89.61,2.43,1.26,4.85,1.97,7.24,1.73,5.79,4.06,11.44,6.78,16.84,2.2,4.38,4.79,8.54,7.78,12.43,6.31,8.22,14.1,15.52,23.59,19.93,2.52,1.17,5.11,2.23,7.77,3.01,2.88.85,5.82,1.33,8.8,1.68,5.88.7,11.9.13,17.68-1.11,5.88-1.26,11.58-3.47,16.95-6.14,5.25-2.61,10.14-5.84,14.67-9.57,8.41-6.91,14.39-16.19,17.89-26.46,1.71-5.01,2.66-10.22,3.21-15.48.51-4.82.5-9.7.01-14.52-.54-5.32-1.47-10.59-3.02-15.71-1.65-5.44-3.85-10.75-6.42-15.82-4.89-9.66-11.43-18.47-18.63-26.52-3.43-3.83-7.05-7.5-10.81-11.01-1.17-1.09-2.35-2.17-3.55-3.23,4.56,1.16,9.27,1.87,13.9,2.49,6.05.8,12.15,1.18,18.25,1.35,6.93.19,13.73-.01,20.59-1.16,6.21-1.04,12.03-3.08,17.77-5.63,5.68-2.52,11.32-5.52,16.38-9.13,11.19-7.98,20.1-18.92,25.44-31.59,5.06-11.99,6.49-25.13,4.01-37.92-2.18-11.22-7.78-21.63-15.78-29.78ZM97.28,363.14c-3.35-.25-6.7-.61-10.04-1.04-10.3-1.44-20.42-3.96-30.04-7.95-7.01-3.03-13.68-6.82-19.77-11.44-3.95-3.11-7.63-6.54-10.92-10.34-.45-.52-.89-1.04-1.32-1.57-.17-.21-.35-.42-.52-.64-.05-.06-.13-.17-.22-.28-.77-1.03-1.53-2.05-2.24-3.12-1.5-2.24-2.81-4.6-3.9-7.06-.9-2.29-1.58-4.65-1.98-7.08-.29-2.64-.28-5.3.02-7.95.22-1.42.5-2.84.89-4.23.22-.8.47-1.59.74-2.38.12-.35.25-.7.38-1.04.08-.21.3-.7.39-.9.62-1.31,1.25-2.61,2.01-3.86.4-.67.83-1.32,1.28-1.96.2-.29.41-.57.62-.86-.07.08-.09.12-.19.23.07-.09.15-.18.22-.27.02-.03.05-.06.07-.09.1-.14.25-.31.23-.28,1.02-1.24,2.12-2.42,3.28-3.52.52-.49,1.05-.97,1.6-1.43.25-.21.51-.42.77-.63-.04.02-.06.04-.1.07.07-.05.14-.11.21-.16.02-.01.03-.03.05-.04.05-.04.11-.08.17-.12.03-.03.07-.05.1-.08,1.3-.95,2.65-1.82,4.05-2.61.66-.37,1.33-.73,2.01-1.07.36-.18.72-.35,1.09-.52.16-.07.32-.15.49-.22.05-.02.15-.07.26-.11.01,0,.03-.01.04-.02.25-.1.5-.2.75-.29.42-.16.84-.31,1.26-.46.84-.29,1.69-.55,2.55-.79,1.61-.44,3.25-.77,4.9-1.03,4-.47,8.03-.43,12.03.05,4.29.63,8.51,1.71,12.6,3.17,1.08.39,2.15.8,3.21,1.23.19.08.38.16.58.24-.07-.03-.11-.04-.16-.06.04.02.08.03.1.04.53.23,1.05.46,1.57.7,1.92.88,3.8,1.83,5.65,2.86,3.63,2.01,7.1,4.3,10.41,6.8-.04-.04-.05-.04-.1-.09.07.07.16.12.24.19.02.01.04.02.05.04.02.01.03.03.05.04.12.09.23.18.34.27.38.3.75.6,1.12.91.86.71,1.7,1.43,2.53,2.16,1.55,1.38,3.05,2.82,4.5,4.3,1.47,1.51,2.88,3.08,4.24,4.69.67.8,1.33,1.6,1.97,2.42.12.15.23.3.35.45-.03-.03-.04-.05-.07-.08,0,0,0,0,0,.01.34.45.68.91,1.02,1.36,2.45,3.36,4.7,6.87,6.76,10.49,2.07,3.64,4.02,7.34,5.79,11.14.89,1.91,1.75,3.83,2.58,5.77.08.18.15.35.23.53-.04-.1-.07-.17-.1-.24.04.08.07.16.09.22.19.44.37.89.55,1.34.42,1.03.83,2.06,1.24,3.09,1.45,3.7,2.8,7.44,4.19,11.17-1.9-1.65-3.82-3.29-5.77-4.87-5.06-4.09-10.26-8-15.62-11.69-10.31-7.08-21.16-13.29-32.52-18.51-3.36-1.54-6.75-3.08-10.21-4.41-3.25-1.25-6.6-2.28-9.92-3.3-1.33-.41-2.76.38-3.28,1.61-.49,1.15-.13,2.92,1.14,3.47,2.83,1.24,5.64,2.53,8.42,3.88,2.75,1.34,5.56,2.55,8.32,3.88,5.57,2.7,10.99,5.66,16.35,8.76,5.32,3.08,10.53,6.37,15.59,9.87,2.58,1.78,5.11,3.61,7.62,5.49.59.44,1.17.89,1.75,1.33.07.05.28.21.32.25.36.28.72.56,1.07.84,1.19.94,2.37,1.89,3.54,2.85,2.68,2.21,5.32,4.47,7.9,6.8,1.31,1.18,2.61,2.37,3.89,3.58.77.72,1.53,1.45,2.32,2.14-11.21.6-22.45.8-33.64-.04ZM227.23,87.81c1.05-7.25,2.87-14.39,5.66-21.17,2.15-4.89,4.8-9.54,8.01-13.82,2.94-3.68,6.28-7.01,9.96-9.95,4.08-3.07,8.5-5.65,13.18-7.69,4.73-1.91,9.65-3.26,14.7-4.01,4.96-.59,9.97-.57,14.93.02,5.2.77,10.28,2.22,15.15,4.2,4.95,2.17,9.63,4.9,13.95,8.15,3.83,3.04,7.31,6.47,10.37,10.29,2.59,3.46,4.78,7.17,6.54,11.11,1.93,4.8,3.2,9.82,3.97,14.93,1.18,9.5.9,19.16-.3,28.65-1.35,9.5-3.71,18.87-7.37,27.75-2.49,5.75-5.42,11.35-8.93,16.56-2.49-1.49-5.05-2.87-7.73-4.02-3.64-1.55-7.33-2.91-11.17-3.87-3.84-.96-7.76-1.58-11.7-1.96-14.77-1.44-29.93,1.74-43.1,8.49-2.81,1.44-5.41,3.13-7.93,4.97-1.29-1.36-2.53-2.78-3.7-4.25-3.4-4.51-6.21-9.42-8.47-14.6-2.94-7.15-4.9-14.69-6.01-22.33-1.15-9.1-1.14-18.35.01-27.45ZM248.32,169.14c-.13.1-.25.19-.38.29,0-.01.02-.02.03-.04.12-.08.23-.16.35-.25ZM185.54,246.96c-9.23,1.17-18.59,1.56-27.84.44-5.53-.81-10.96-2.19-16.14-4.29-3.96-1.75-7.72-3.92-11.19-6.5-2.78-2.23-5.32-4.73-7.55-7.51-3.08-4.15-5.59-8.81-7.66-13.55-1.6-3.96-2.79-8.06-3.45-12.28-.57-4.99-.47-10.05.13-15.03.76-5.09,2.07-10.09,4-14.87,1.43-3.22,3.16-6.3,5.25-9.15,2.2-2.72,4.71-5.15,7.43-7.34,4.16-3.11,8.7-5.67,13.46-7.76,6.09-2.49,12.47-4.17,18.98-5.12,8-.98,16.15-.88,24.15.12,9.75,1.41,19.24,4.19,28.34,7.97,2.9,1.27,5.72,2.69,8.64,3.91-.46-.19-.92-.39-1.37-.58,2.39,1.11,4.75,2.29,7.11,3.45,1.18.58,2.36,1.17,3.53,1.78.27.14.53.3.8.44,1.3.54,1.59.67.88.37-.41-.17-.42-.17-.05,0,.62.34,1.27.63,1.9.95.03.01.05.01.08.03.93,1.06,1.89,2.09,2.88,3.09.29.29.62.54.97.76,0,.02.02.05.02.07-.05.05-.1.09-.15.14-1.28,1.29-2.49,2.63-3.7,3.98-.27.3-.51.57-.76.9-.26.34-.36.47-.41.53-.39.5-.77.99-1.15,1.49-.56.73-1.1,1.46-1.63,2.21-4.43,6.22-7.69,13.34-9.99,20.62-4.26,13.48-4.57,28.16-.76,41.78-11.19,4.3-22.87,7.32-34.74,8.97ZM286.1,299.34c-.26,4.11-.62,8.23-1.13,12.32-1.27,8.9-3.49,17.64-6.9,25.97-2.71,6.23-6.1,12.14-10.2,17.57-3.64,4.59-7.77,8.78-12.36,12.43-4,3-8.31,5.56-12.89,7.58-4.02,1.61-8.18,2.77-12.46,3.43-4.34.5-8.72.5-13.06,0-4.07-.63-8.05-1.7-11.87-3.23-3.14-1.41-6.12-3.12-8.9-5.15-2.69-2.15-5.11-4.58-7.26-7.26-2.26-3.07-4.16-6.38-5.71-9.86-1.86-4.62-3.15-9.46-3.89-14.39-.69-5.8-.62-11.65.1-17.44,1.3-8.72,4.01-17.13,7.37-25.27,1.2-2.78,2.5-5.5,3.84-8.22.68-1.39,1.39-2.76,2.12-4.12.92-1.69,1.93-3.29,2.67-5.07-.18.43-.36.86-.55,1.29,1.55-2.94,3.25-5.81,5.17-8.52.44-.62.9-1.24,1.36-1.85.13-.17.26-.34.4-.5.39-.47.76-.95,1.11-1.45.23-.33.48-.64.72-.96.16-.17.31-.35.48-.52.62-.59,1.27-1.15,1.92-1.7.33-.28.55-.64.71-1.03,6.03-3.88,12.37-7.27,18.97-10.08.19-.08.38-.15.57-.23,1.44,2.61,3,5.15,4.8,7.52,2.37,3.12,4.9,6.07,7.81,8.7,3.2,2.9,6.7,5.51,10.37,7.8,11.06,6.9,23.99,11.31,37.08,12.51-.11,3.25-.17,6.51-.38,9.76ZM283.68,277.83c-6.58-.97-13.01-2.77-19.16-5.3-5.36-2.34-10.49-5.2-15.17-8.71-3.34-2.66-6.36-5.7-9.03-9.04-2.91-3.87-5.33-8.07-7.27-12.5-2.05-5.03-3.48-10.3-4.28-15.67-.67-5.49-.68-11.03-.01-16.51.87-5.92,2.49-11.71,4.76-17.24,1.76-4.05,3.86-7.96,6.13-11.74,1.2-1.98,2.48-3.92,3.78-5.83.64-.93,1.29-1.85,1.96-2.76.16-.22.32-.43.49-.65,0,0,0,0,0,0,.16-.2.31-.4.47-.59.09-.11.18-.21.27-.31.23-.3.46-.59.69-.89-.11.15-.23.31-.34.46.32-.24.6-.6.87-.96,1.31-.71,2.61-1.57,3.85-2.39,1.39-.92,2.82-1.78,4.25-2.64,2.59-1.55,5.29-2.91,8.06-4.12,5.48-2.23,11.22-3.79,17.07-4.66,5.77-.7,11.61-.71,17.38,0,5.24.79,10.37,2.17,15.29,4.16,4.59,2.02,8.91,4.57,12.92,7.58,4.32,3.42,8.21,7.34,11.63,11.66,3.49,4.63,6.42,9.65,8.73,14.97,2.09,5.16,3.59,10.55,4.41,16.06.62,5.14.64,10.33.03,15.48-.8,5.42-2.27,10.71-4.33,15.78-2.23,5.09-5.04,9.91-8.39,14.35-3.28,4.13-7,7.9-11.13,11.19-3.72,2.79-7.72,5.16-11.98,7.04-4.64,1.88-9.49,3.17-14.44,3.9-5.82.7-11.7.65-17.51-.07ZM386.59,286.41c5.22,6.87,9.77,14.27,13.21,22.19,2.36,5.81,4.09,11.84,5.01,18.04.66,5.61.69,11.27.02,16.88-.71,4.72-1.93,9.34-3.72,13.76-1.54,3.45-3.43,6.72-5.67,9.75-2.44,3.02-5.22,5.72-8.24,8.14-4.47,3.35-9.36,6.16-14.48,8.4-4.4,1.78-8.96,3.1-13.65,3.82-3.51.39-7.04.42-10.55.03-3.16-.51-6.24-1.37-9.22-2.55-3.43-1.54-6.67-3.47-9.69-5.72-3.94-3.14-7.47-6.76-10.6-10.7-4.05-5.39-7.3-11.3-9.97-17.49-.82-2.02-1.58-4.06-2.43-6.06.22.52.44,1.05.66,1.57-2.25-5.73-4-11.6-5.73-17.51-1.26-4.31-2.45-8.64-3.58-12.98,1.12-7.39,1.64-14.88,1.4-22.35-.04-1.32-.14-2.63-.25-3.93,7.18-.52,14.33-1.99,20.97-4.77,6.89-2.88,13.1-6.72,18.78-11.59,5.77-4.96,10.67-10.95,14.62-17.51,1.33.92,2.74,1.73,4.11,2.59,1.61,1.02,3.16,2.13,4.68,3.28,4.57,3.63,8.84,7.65,12.93,11.81,4.03,4.09,7.84,8.39,11.38,12.91ZM481.79,192.26c-.72,4.83-2.03,9.53-3.86,14.05-2.06,4.68-4.67,9.1-7.74,13.19-3.05,3.81-6.54,7.27-10.35,10.32-5.4,4.07-11.47,7.25-17.67,9.94-5.78,2.38-11.83,4.13-18.02,5.06-5.62.66-11.27.63-16.92.44-5.4-.18-10.8-.55-16.16-1.23-5.01-.74-9.93-1.82-14.81-3.18-4.9-1.37-9.7-2.92-14.41-4.8,3.49-13.26,3.09-27.44-1.15-40.49-3.59-11.05-9.67-21.39-17.67-29.86,9.22-6.55,19.05-12.27,29.17-17.29,3.39-1.68,6.83-3.26,10.31-4.75,9.17-3.81,18.65-6.87,28.49-8.31,7.3-.92,14.68-1.07,21.99-.17,5.59.83,11.06,2.27,16.29,4.39,4.92,2.15,9.57,4.86,13.86,8.09,3.43,2.73,6.57,5.81,9.31,9.25,2.36,3.16,4.35,6.57,5.95,10.18,1.63,4.05,2.75,8.28,3.4,12.6.49,4.19.47,8.39-.02,12.57Z"/>
  <path d="M280.29,208.08s.06,0,.09,0c.25-.03.52-.07.75-.1.23-.03.5-.06.75-.1.14-.02.27-.06.39-.11.42-.17.88-.36,1.29-.54.02,0,.03-.01.05-.02.03-.02.07-.03.1-.05.06-.03.12-.07.18-.11.03-.02.06-.04.08-.06.35-.27.74-.56,1.09-.84.02-.01.03-.02.05-.04.05-.04.1-.09.15-.14.2-.21.38-.47.54-.69.16-.21.37-.45.52-.69.04-.06.07-.13.11-.2,0-.02.02-.04.02-.06.18-.42.37-.86.54-1.28.02-.04.03-.08.04-.11.03-.08.05-.16.07-.24,0-.04.02-.07.02-.11,0-.02,0-.04.01-.06.07-.47.13-.96.19-1.43.01-.08.01-.16.02-.24-.06.46-.12.92-.18,1.38.07-.5.17-1.07.21-1.6,0-.08,0-.17,0-.25,0-.08,0-.17-.01-.25,0-.04,0-.08-.01-.11-.06-.48-.13-.96-.19-1.43,0-.02,0-.05-.01-.07-.03-.17-.06-.33-.11-.49-.02-.08-.05-.15-.07-.23-.09-.24-.21-.49-.3-.72-.1-.23-.2-.5-.31-.74-.03-.07-.07-.14-.11-.21-.02-.03-.04-.06-.06-.09-.01-.02-.02-.03-.03-.05,0,0-.01-.01-.01-.02-.26-.35-.57-.75-.84-1.09-.05-.06-.1-.12-.15-.17-.02-.02-.05-.05-.08-.07,0,0-.01,0-.02-.01-.32-.26-.76-.59-1.09-.84-.02-.01-.03-.02-.05-.04-.06-.04-.12-.07-.18-.1-.26-.11-1.02-.44-1.28-.54,0,0-.01,0-.02,0-.02,0-.03-.01-.05-.02-.03-.01-.07-.02-.1-.02-.24-.04-.66-.09-.73-.1-.05,0-.49-.07-.73-.1-.02,0-.03,0-.05,0-.03,0-.07,0-.1,0-.24.02-.56.07-.74.1-.06,0-.49.06-.73.1-.02,0-.04,0-.05.01-.03,0-.06.02-.09.03-.01,0-.03.01-.04.02-.18.07-1.11.47-1.29.54,0,0-.02,0-.02.01-.03.01-.05.03-.08.04-.21.13-.49.37-.61.47-.12.09-.43.3-.6.47-.02.02-.04.04-.06.06,0,0-.02.02-.02.03-.02.03-.04.06-.07.08-.02.01-.04.03-.06.04-.18.14-.37.28-.55.43-.11.09-.21.19-.29.3-.28.35-.56.71-.83,1.07-.01.01-.02.03-.03.04-.02.03-.04.06-.07.09-.04.06-.08.12-.11.18-.03.06-.06.13-.1.19-.28.53-.49.95-.57,1.48-.08.5-.14,1-.2,1.5,0,.04,0,.08-.01.12,0,.07-.01.15-.01.22,0,.15,0,.3.01.45,0,.03,0,.07.01.1,0,.02,0,.04,0,.06.06.48.12.97.2,1.46.01.07.03.15.04.22.03.15.08.29.13.43.18.43.37.88.55,1.3,0,.02.01.03.02.05.02.04.03.07.05.11.03.06.07.13.11.19.15.21.33.43.47.62.14.18.31.42.48.61.05.06.1.11.16.16.37.31.76.59,1.14.88.03.02.06.05.1.07.06.04.12.07.18.09.21.09.48.2.65.27.17.07.43.19.65.28.02,0,.03.01.05.02.03.01.06.02.09.03.03,0,.06.02.1.02.01,0,.03,0,.04,0,0,0,.02,0,.03,0,.43.07.99.14,1.42.19.07,0,.13.01.2,0Z"/>
  <path d="M302.91,204.41c.02.08.04.16.07.23.18.47.37.94.59,1.39.02.04.04.07.06.1,0,.01.02.03.03.04,0,0,0,0,0,0,.28.37.57.74.85,1.1,0,0,.01.01.02.02.02.02.04.05.06.07.02.02.04.04.07.06,0,0,0,0,0,0,.37.28.74.57,1.1.85,0,0,.01,0,.02.01.01.01.03.02.05.03.02.02.05.03.08.05.43.23,1.27.54,1.38.59.06.02.12.04.18.06.03,0,.06.01.1.02,0,0,.02,0,.02,0,.42.06,1.04.15,1.46.2.02,0,.03,0,.05,0,.06,0,.13,0,.19,0,.54-.04,1.09-.1,1.62-.22.06-.01.13-.03.19-.06.46-.19.93-.37,1.38-.58.03-.02.07-.03.1-.05.06-.04.12-.08.18-.12.39-.3.79-.59,1.16-.9.03-.02.06-.05.08-.07.05-.05.11-.11.15-.16.35-.4.66-.83.98-1.26.04-.06.08-.12.12-.18.09-.14.16-.28.23-.42.22-.5.45-.99.63-1.51.03-.08.05-.16.07-.24.01-.04.02-.08.03-.12,0-.02,0-.04,0-.06,0,0,0-.02,0-.03.07-.47.14-.97.19-1.45,0-.08.01-.16.01-.24,0-.04,0-.08,0-.13-.05-.51-.11-1.02-.21-1.53.06.47.13.95.19,1.42-.06-.52-.11-1.03-.21-1.54,0-.05-.02-.09-.03-.14-.01-.04-.03-.08-.04-.12-.18-.45-.36-.89-.56-1.33-.01-.03-.02-.05-.04-.08-.02-.04-.04-.07-.06-.1-.01-.02-.03-.04-.04-.06-.14-.18-.28-.36-.42-.55-.14-.19-.29-.37-.43-.56,0-.01-.02-.02-.03-.04-.03-.03-.05-.06-.08-.08-.37-.34-.79-.64-1.19-.93-.03-.02-.07-.04-.1-.06-.45-.24-.93-.42-1.41-.6-.04-.01-.08-.03-.12-.03-.52-.1-1.04-.19-1.57-.21-.04,0-.09,0-.13,0,.1-.01-1.02.11-1.5.2-.02,0-.05,0-.07.02-.04.01-.08.03-.12.04-.04.02-1,.37-1.42.61,0,0,0,0-.01,0-.21.09-.43.18-.6.27-.03.01-.06.03-.09.05-.03.02-.05.03-.08.05-.4.28-.78.58-1.16.89-.05.04-.1.09-.14.14-.01.01-.02.03-.03.04,0,0-.01.01-.02.02-.26.34-.59.76-.85,1.1-.02.03-.05.06-.07.1-.04.06-.08.13-.11.19-.12.24-.22.51-.31.74-.1.24-.22.5-.31.75-.05.14-.09.29-.12.44,0,.04-.01.07-.02.11-.07.49-.14.99-.2,1.49,0,.02,0,.05,0,.07,0,.08-.02.16-.02.23,0,.08-.01.16,0,.24.03.5.19,1.42.21,1.55,0,.04.01.08.02.12Z"/>
  <path d="M303.01,224.74c.28-.1.55-.2.83-.31.14-.06.28-.12.43-.18.82-.34,1.3-.49,1.94-1.15.19-.25.38-.5.58-.75.12-.29.25-.59.37-.88.04-.33.09-.65.13-.98.02-.51-.09-.98-.32-1.42-.09-.31-.25-.58-.47-.81-.16-.28-.38-.5-.66-.66-.23-.23-.5-.39-.81-.47-.44-.23-.91-.34-1.42-.32-.04,0-.09,0-.13,0l-1,.13c-.07.02-.13.04-.2.07-.13.05-.26.1-.4.15-.24.09-.49.18-.73.26-.53.17-1.06.33-1.6.46-.86.21-1.75.36-2.63.5-1.07.12-2.14.2-3.22.17-.6-.02-1.2-.06-1.79-.09-.42-.02-.84-.07-1.26-.12-.6-.09-1.19-.21-1.77-.35-.04-.54-.1-1.07-.18-1.61-.11-.8-.32-1.58-.61-2.32-.1-.41-.28-.77-.56-1.07-.22-.34-.52-.61-.88-.81-.36-.23-.75-.35-1.17-.37-.42-.09-.84-.07-1.25.06-.25.11-.5.21-.75.32-.47.28-.85.66-1.13,1.13-.11.25-.21.5-.32.75-.15.56-.15,1.11,0,1.67.09.32.14.65.2.97.06.65.06,1.3,0,1.95-.12.67-.3,1.34-.54,1.98-.28.6-.61,1.18-1,1.72-.04.05-.08.1-.13.15-.36.33-.61.72-.76,1.18-.23.44-.33.91-.31,1.41-.02.5.09.97.31,1.41.15.45.4.85.76,1.18.25.19.49.38.74.57.57.33,1.19.5,1.85.5.32-.04.65-.09.97-.13.62-.17,1.16-.49,1.61-.94.63-.8,1.22-1.59,1.67-2.5.1-.2.18-.42.27-.63.68.26,1.36.5,2.07.69,1.34.37,2.7.58,4.08.68,1.08.08,2.16.08,3.24,0,1.42-.1,2.83-.29,4.21-.65.59-.15,1.18-.33,1.76-.54Z"/>
  <path d="M22.97,289.04c-.1.12-.19.24-.29.36-.01.01-.02.03-.03.04.21-.26.33-.4.33-.42,0,0,0,0-.01.02Z"/>
  <path d="M74.7,280.62c-.32-.13-.89-.35,0,0h0Z"/>
  <path d="M123.93,335.39c-.13-.3-.27-.63,0,0h0Z"/>
  <path d="M28.97,283.19c-.07.06-.15.11-.22.16-.04.03-.07.06-.11.09.8-.53.59-.43.33-.26Z"/>
  <path d="M92.68,291.21s-.07-.06-.11-.08c-.05-.03-.1-.06-.14-.1.64.59.47.37.25.18Z"/>
  <path d="M107.66,306.33c-.19-.24-.77-.92,0,0h0Z"/>
</svg>
